<?xml version="1.0" standalone="no"?>
<!DOCTYPE svg PUBLIC "-//W3C//DTD SVG 20010904//EN"
 "http://www.w3.org/TR/2001/REC-SVG-20010904/DTD/svg10.dtd">
<svg version="1.0" xmlns="http://www.w3.org/2000/svg"
 width="256.000000pt" height="256.000000pt" viewBox="0 0 256.000000 256.000000"
 preserveAspectRatio="xMidYMid meet">

<g transform="translate(0.000000,256.000000) scale(0.100000,-0.100000)"
fill="#000000" stroke="none">
<path d="M852 2485 c-39 -44 -41 -45 -99 -45 l-60 0 -187 -190 -186 -190 0
-62 0 -63 -116 -116 -116 -117 1 -117 2 -117 -46 -41 -45 -41 0 -203 0 -204
50 -78 50 -78 0 -177 0 -178 122 -124 121 -124 124 0 123 0 97 -90 98 -90 163
0 164 0 66 60 c59 53 72 60 108 60 36 0 49 -7 107 -60 l65 -60 164 0 163 0 98
90 97 90 123 0 123 0 122 123 122 124 0 179 0 179 45 67 45 67 0 220 0 220
-35 28 -35 28 0 120 0 120 -120 120 -120 120 0 64 0 65 -187 188 -187 188 -58
0 c-55 0 -59 2 -99 45 l-42 45 -98 0 -99 0 -72 -85 -72 -85 -50 0 -51 1 -73
84 -73 85 -98 0 -99 0 -40 -45z m301 -75 l57 -69 0 -345 0 -346 -25 0 -25 0 0
200 0 200 -71 75 -72 75 -63 0 c-36 0 -73 -6 -84 -12 -28 -18 -55 1 -55 37 0
36 27 55 55 37 11 -7 52 -12 94 -12 l74 0 61 -66 61 -67 0 104 0 104 -47 58
-46 57 -69 0 -69 0 -41 -45 c-39 -43 -43 -45 -97 -45 l-56 0 -167 -167 -168
-168 0 -65 1 -65 -116 -110 -115 -110 0 -116 0 -115 -35 -34 -35 -34 0 -188 0
-189 45 -67 45 -67 0 -170 0 -170 107 -107 108 -108 117 0 117 0 91 -85 91
-85 132 0 131 0 38 37 38 37 0 268 0 268 25 0 25 0 0 -279 0 -278 -54 -52 -55
-51 -147 0 -147 0 -92 85 -93 85 -113 0 -114 0 -127 127 -128 128 0 170 0 170
-45 67 -45 67 0 204 0 203 40 39 40 39 0 111 0 110 115 115 115 115 0 61 0 62
178 181 177 182 55 -1 c52 0 59 3 95 40 l39 40 96 -1 95 -1 58 -68z m552 30
c36 -37 43 -40 95 -40 l55 0 140 -142 c233 -238 219 -219 216 -284 l-2 -56
115 -117 116 -117 0 -110 0 -110 40 -39 40 -39 0 -203 0 -204 -45 -67 -45 -67
0 -170 0 -170 -123 -128 -123 -127 -119 0 -120 -1 -90 -84 -90 -85 -148 0
-148 0 -55 51 -54 52 0 278 0 279 25 0 25 0 0 -267 0 -267 37 -38 37 -38 132
0 132 0 93 85 92 85 116 0 116 0 107 107 108 108 0 168 0 168 50 78 50 78 0
174 0 175 -40 39 -40 39 0 117 0 117 -115 109 -115 110 0 64 0 64 -167 167
-168 168 -57 0 c-55 0 -58 1 -95 45 -37 45 -37 45 -103 45 -74 0 -71 1 -128
-64 l-42 -49 0 -106 0 -106 61 68 61 67 74 0 c42 0 83 5 94 12 28 18 55 -1 55
-37 0 -36 -27 -55 -55 -37 -11 6 -49 12 -84 12 l-64 0 -71 -76 -71 -76 0 -199
0 -199 -25 0 -25 0 0 345 0 344 60 71 61 70 92 0 93 0 39 -40z m-734 -399 c21
-17 22 -22 11 -45 -7 -15 -12 -60 -12 -100 l0 -74 -56 -48 c-31 -26 -61 -60
-66 -76 -20 -57 -99 -43 -84 15 4 16 17 29 35 35 17 6 50 29 75 53 46 42 46
42 46 110 0 37 -4 71 -10 74 -15 9 -12 42 6 59 20 20 27 20 55 -3z m680 9 c20
-11 26 -54 9 -65 -5 -3 -10 -37 -10 -75 l0 -68 47 -42 c26 -23 62 -48 80 -55
25 -10 33 -20 33 -38 0 -53 -73 -63 -86 -12 -3 14 -32 48 -63 76 l-56 50 -6
82 c-3 45 -9 90 -13 99 -5 11 -1 23 13 37 24 24 26 25 52 11z m-970 -250 c34
-19 19 -80 -21 -80 -9 0 -31 -16 -50 -35 -26 -27 -42 -35 -69 -35 l-35 0 50
53 c28 28 58 64 67 80 19 30 28 32 58 17z m1261 -7 c10 -9 18 -21 18 -27 0 -6
23 -34 52 -63 l52 -53 -35 0 c-27 0 -43 8 -69 35 -19 19 -41 35 -50 35 -38 0
-55 60 -22 79 24 14 33 13 54 -6z m-1482 -328 c0 -45 0 -45 -35 -45 -35 0 -35
0 -35 45 0 45 0 45 35 45 35 0 35 0 35 -45z m1372 -202 l3 -248 28 -13 c20
-10 27 -20 27 -43 0 -26 -3 -29 -31 -29 -22 0 -41 10 -65 34 l-34 34 0 256 0
256 35 0 35 0 2 -247z m168 14 c0 -194 3 -236 16 -255 8 -12 22 -22 30 -22 9
0 14 -11 14 -35 0 -29 -4 -35 -20 -35 -34 0 -79 28 -95 60 -12 24 -15 75 -15
275 l0 245 35 0 35 0 0 -233z m178 186 l3 -43 -40 0 c-41 0 -41 0 -41 38 0 47
6 54 45 50 28 -3 30 -6 33 -45z m-1098 -88 l0 -45 70 0 70 0 0 -35 0 -34 -67
-3 -68 -3 -3 -101 c-3 -118 7 -157 40 -152 13 2 29 15 36 31 10 20 20 27 43
27 35 0 44 -16 30 -54 -30 -78 -122 -102 -183 -47 l-33 29 -3 216 -3 216 35 0
c36 0 36 0 36 -45z m-289 -46 c52 -16 108 -64 130 -113 15 -33 19 -66 19 -163
l0 -123 -35 0 -35 0 0 108 c0 83 -5 116 -19 149 -47 102 -195 102 -242 0 -14
-33 -19 -66 -19 -150 l0 -108 -32 3 -33 3 -3 118 c-3 137 12 185 72 233 63 51
125 64 197 43z m798 -26 c53 -33 91 -99 94 -164 l2 -44 -167 -3 c-93 -1 -168
-6 -168 -10 0 -4 7 -18 16 -30 34 -49 118 -67 163 -36 22 16 24 15 49 -9 l26
-26 -25 -20 c-55 -46 -149 -50 -210 -8 -62 42 -92 92 -97 156 -5 76 9 118 57
165 74 72 172 83 260 29z m-1129 -173 l0 -200 -35 0 -35 0 0 200 0 200 35 0
35 0 0 -200z m1715 0 l0 -195 -35 0 -35 0 -3 185 c-1 101 0 190 3 198 3 8 17
12 37 10 l33 -3 0 -195z m-1598 -428 c-20 -21 -37 -43 -37 -48 0 -21 -38 -46
-59 -39 -42 13 -35 85 9 85 9 0 25 9 35 20 12 13 31 20 54 20 l35 0 -37 -38z
m333 -73 l0 -110 -55 -51 c-30 -27 -60 -62 -67 -76 -15 -30 -42 -39 -63 -22
-29 24 -12 80 23 80 8 0 39 21 68 46 l54 46 0 99 c0 92 1 99 20 99 19 0 20 -7
20 -111z m791 10 l-3 -96 55 -46 c30 -26 61 -47 70 -47 9 0 23 -10 31 -22 13
-19 14 -25 2 -43 -20 -29 -58 -26 -73 7 -7 14 -38 49 -68 76 l-55 51 0 111 c0
110 0 111 23 108 21 -3 22 -6 18 -99z m344 81 c10 -11 26 -20 35 -20 44 0 51
-72 9 -85 -21 -7 -59 18 -59 39 0 5 -17 27 -37 48 l-37 38 35 0 c23 0 42 -7
54 -20z m-1313 -87 c10 -9 18 -21 18 -26 0 -16 -31 -47 -47 -47 -22 0 -181
-150 -187 -176 -9 -33 -44 -41 -69 -15 -18 17 -19 24 -9 46 7 15 20 25 32 25
23 0 183 144 189 169 9 42 42 53 73 24z m1177 -18 c18 -39 166 -175 191 -175
23 0 43 -34 35 -59 -12 -40 -71 -37 -81 4 -7 27 -160 171 -188 176 -10 2 -25
13 -32 24 -12 18 -11 24 2 44 22 30 55 24 73 -14z"/>
<path d="M1440 1260 c-36 -9 -90 -59 -90 -85 0 -12 21 -15 125 -15 101 0 125
3 125 14 0 21 -47 74 -73 81 -42 12 -52 13 -87 5z"/>
<path d="M2547 733 c-11 -10 -8 -143 3 -143 6 0 10 32 10 75 0 75 -1 81 -13
68z"/>
</g>
</svg>
